<svg viewBox="0 0 1200 900" fill="none" xmlns="http://www.w3.org/2000/svg"><path fill="#fff" d="M0 0h1200v900H0z"></path><path d="M551 260.4a5 5 0 015 5v20H276v-20a5 5 0 015-5h270z" fill="#353535"></path><path fill="#A3A3A3" d="M283 261.4h4v4h-4zm6 0h4v4h-4zm6 0h4v4h-4z"></path><path d="M282.075 218.636h-4.305V239h4.305v-20.364zm7.699 11.534c.01-1.968 1.183-3.122 2.893-3.122 1.701 0 2.725 1.114 2.715 2.983V239h4.236v-9.724c0-3.56-2.089-5.748-5.27-5.748-2.267 0-3.908 1.114-4.594 2.894h-.179v-2.695h-4.037V239h4.236v-8.83zm20.063 14.875c4.365 0 7.467-1.988 7.467-5.896v-15.422h-4.206v2.566h-.159c-.567-1.243-1.81-2.765-4.365-2.765-3.351 0-6.185 2.606-6.185 7.806 0 5.081 2.754 7.447 6.195 7.447 2.436 0 3.798-1.223 4.355-2.486h.179v2.794c0 2.099-1.342 2.914-3.182 2.914-1.869 0-2.814-.815-3.162-1.74l-3.917.527c.507 2.406 2.863 4.255 6.98 4.255zm.089-9.446c-2.078 0-3.212-1.65-3.212-4.285 0-2.595 1.114-4.415 3.212-4.415 2.058 0 3.212 1.74 3.212 4.415 0 2.695-1.174 4.285-3.212 4.285zM320.675 239h4.236v-8.641c0-1.879 1.372-3.171 3.241-3.171.587 0 1.392.099 1.79.228v-3.758a6.327 6.327 0 00-1.333-.149c-1.71 0-3.112.994-3.669 2.883h-.159v-2.665h-4.106V239zm17.706.298c3.778 0 6.324-1.839 6.92-4.673l-3.917-.259c-.428 1.164-1.521 1.77-2.933 1.77-2.118 0-3.461-1.402-3.461-3.679v-.01h10.401v-1.163c0-5.19-3.142-7.756-7.179-7.756-4.494 0-7.408 3.192-7.408 7.905 0 4.843 2.874 7.865 7.577 7.865zm-3.391-9.476c.09-1.74 1.412-3.132 3.292-3.132 1.839 0 3.112 1.313 3.122 3.132h-6.414zm25.873-1.74c-.378-2.814-2.645-4.554-6.503-4.554-3.908 0-6.483 1.81-6.473 4.753-.01 2.287 1.432 3.769 4.414 4.365l2.645.527c1.333.269 1.939.756 1.959 1.522-.02.904-1.004 1.551-2.486 1.551-1.511 0-2.515-.647-2.774-1.889l-4.166.218c.398 2.924 2.884 4.723 6.93 4.723 3.958 0 6.792-2.018 6.802-5.031-.01-2.207-1.452-3.53-4.415-4.136l-2.764-.557c-1.422-.308-1.949-.796-1.939-1.531-.01-.915 1.024-1.512 2.336-1.512 1.472 0 2.347.806 2.556 1.79l3.878-.239zm15.722 0c-.378-2.814-2.645-4.554-6.503-4.554-3.907 0-6.483 1.81-6.473 4.753-.01 2.287 1.432 3.769 4.415 4.365l2.645.527c1.332.269 1.939.756 1.959 1.522-.02.904-1.004 1.551-2.486 1.551-1.511 0-2.516-.647-2.774-1.889l-4.166.218c.397 2.924 2.883 4.723 6.93 4.723 3.957 0 6.791-2.018 6.801-5.031-.01-2.207-1.451-3.53-4.415-4.136l-2.764-.557c-1.422-.308-1.949-.796-1.939-1.531-.01-.915 1.024-1.512 2.337-1.512 1.472 0 2.347.806 2.555 1.79l3.878-.239z" fill="#4A4A4A"></path><path d="M551 455a5 5 0 015 5v20H276v-20a5 5 0 015-5h270z" fill="#D2D2D2"></path><path fill="#A3A3A3" d="M283 456h4v4h-4zm6 0h4v4h-4zm6 0h4v4h-4z"></path><path d="M418 290.8v159h-3v-159h3z" fill="#9EEBCF"></path><circle cx="416.5" cy="290.3" r="6.5" fill="#fff" stroke="#9EEBCF" stroke-width="3"></circle><path d="M416.5 453.8l-5.5-8h11l-5.5 8z" fill="#9EEBCF"></path><g clip-path="url(#clip0)"><path d="M418 484v120h-3V484h3z" fill="#9EEBCF"></path><circle cx="416.5" cy="483.5" r="6.5" fill="#fff" stroke="#9EEBCF" stroke-width="3"></circle><path d="M416.5 608l-5.5-8h11l-5.5 8z" fill="#9EEBCF"></path><path fill-rule="evenodd" clip-rule="evenodd" d="M556 840.3c0 1.491-.877 2.7-1.959 2.7H277.959c-1.082 0-1.959-1.209-1.959-2.7V609a5 5 0 015-5h270a5 5 0 015 5v231.3z" fill="#FF003C"></path><path d="M276 609a5 5 0 015-5h270a5 5 0 015 5v18H276v-18z" fill="#CCC"></path><path fill-rule="evenodd" clip-rule="evenodd" d="M293 616.5a4.5 4.5 0 01-4.5 4.5 4.5 4.5 0 01-4.5-4.5 4.5 4.5 0 014.5-4.5 4.5 4.5 0 014.5 4.5z" fill="#E74C3C"></path><path fill-rule="evenodd" clip-rule="evenodd" d="M309 616.5a4.5 4.5 0 01-4.5 4.5 4.5 4.5 0 01-4.5-4.5 4.5 4.5 0 014.5-4.5 4.5 4.5 0 014.5 4.5z" fill="#F1C40F"></path><path fill-rule="evenodd" clip-rule="evenodd" d="M324 616.5a4.5 4.5 0 01-4.5 4.5 4.5 4.5 0 01-4.5-4.5 4.5 4.5 0 014.5-4.5 4.5 4.5 0 014.5 4.5z" fill="#2ECC71"></path><path d="M277.77 586.2h4.305v-6.602h3.62c4.683 0 7.407-2.794 7.407-6.861 0-4.047-2.674-6.901-7.298-6.901h-8.034V586.2zm4.305-10.053v-6.791h2.904c2.485 0 3.689 1.353 3.689 3.381 0 2.018-1.204 3.41-3.669 3.41h-2.924zm20.399 10.351c4.633 0 7.517-3.172 7.517-7.875 0-4.733-2.884-7.895-7.517-7.895-4.634 0-7.517 3.162-7.517 7.895 0 4.703 2.883 7.875 7.517 7.875zm.02-3.281c-2.138 0-3.232-1.959-3.232-4.624 0-2.664 1.094-4.633 3.232-4.633 2.098 0 3.191 1.969 3.191 4.633 0 2.665-1.093 4.624-3.191 4.624zm15.879 3.232c2.466 0 3.748-1.422 4.335-2.695h.179v2.446h4.176v-20.364h-4.226v7.657h-.129c-.567-1.243-1.79-2.765-4.345-2.765-3.351 0-6.185 2.606-6.185 7.856 0 5.11 2.715 7.865 6.195 7.865zm1.342-3.371c-2.078 0-3.211-1.85-3.211-4.514 0-2.645 1.113-4.465 3.211-4.465 2.058 0 3.212 1.74 3.212 4.465 0 2.724-1.173 4.514-3.212 4.514zm24.709 3.4c4.534 0 7.616-2.953 7.607-7.069.009-3.898-2.715-6.702-6.384-6.702-1.79 0-3.331.746-4.047 1.75h-.119l.527-5.101h8.899v-3.52h-12.449l-.964 10.739 3.828.686c.626-.845 1.839-1.372 3.042-1.372 2.049.01 3.52 1.491 3.52 3.629 0 2.118-1.442 3.58-3.46 3.58-1.71 0-3.092-1.074-3.192-2.655h-4.176c.08 3.52 3.152 6.035 7.368 6.035z" fill="#4A4A4A"></path></g><path d="M288.817 417.693h4.126c-.059-3.629-3.042-6.135-7.577-6.135-4.464 0-7.735 2.466-7.715 6.165-.01 3.003 2.108 4.723 5.548 5.548l2.217.557c2.218.537 3.45 1.173 3.46 2.545-.01 1.492-1.421 2.506-3.609 2.506-2.237 0-3.848-1.034-3.987-3.072h-4.166c.109 4.404 3.261 6.681 8.203 6.681 4.971 0 7.895-2.376 7.905-6.105-.01-3.39-2.566-5.19-6.106-5.986l-1.829-.437c-1.77-.408-3.251-1.064-3.222-2.526 0-1.312 1.164-2.277 3.272-2.277 2.058 0 3.321.935 3.48 2.536zm14.181 14.805c3.779 0 6.324-1.839 6.921-4.673l-3.918-.259c-.427 1.164-1.521 1.77-2.933 1.77-2.118 0-3.46-1.402-3.46-3.679v-.01h10.4v-1.163c0-5.19-3.142-7.756-7.179-7.756-4.494 0-7.407 3.192-7.407 7.905 0 4.843 2.873 7.865 7.576 7.865zm-3.39-9.476c.089-1.74 1.412-3.132 3.291-3.132 1.839 0 3.112 1.313 3.122 3.132h-6.413zm13.164 9.178h4.236v-8.641c0-1.879 1.372-3.171 3.242-3.171.586 0 1.392.099 1.789.228v-3.758a6.31 6.31 0 00-1.332-.149c-1.71 0-3.112.994-3.669 2.883h-.159v-2.665h-4.107V432.2zm26.161-15.273h-4.484l-3.162 10.928h-.16l-3.171-10.928h-4.475l5.34 15.273h4.772l5.34-15.273zM341.1 432.2h4.236v-15.273H341.1V432.2zm2.128-17.241c1.263 0 2.297-.965 2.297-2.148 0-1.173-1.034-2.138-2.297-2.138-1.253 0-2.287.965-2.287 2.138 0 1.183 1.034 2.148 2.287 2.148zm12.402 17.539c4.067 0 6.622-2.386 6.821-5.896h-3.997c-.249 1.631-1.323 2.545-2.774 2.545-1.979 0-3.262-1.66-3.262-4.583 0-2.884 1.293-4.534 3.262-4.534 1.551 0 2.545 1.024 2.774 2.545h3.997c-.179-3.53-2.854-5.847-6.841-5.847-4.633 0-7.497 3.212-7.497 7.895 0 4.644 2.814 7.875 7.517 7.875zm16.493 0c3.779 0 6.324-1.839 6.921-4.673l-3.918-.259c-.427 1.164-1.521 1.77-2.933 1.77-2.118 0-3.46-1.402-3.46-3.679v-.01h10.4v-1.163c0-5.19-3.142-7.756-7.179-7.756-4.494 0-7.407 3.192-7.407 7.905 0 4.843 2.873 7.865 7.576 7.865zm-3.39-9.476c.089-1.74 1.412-3.132 3.291-3.132 1.839 0 3.112 1.313 3.122 3.132h-6.413z" fill="#4A4A4A"></path><g clip-path="url(#clip1)"><path fill-rule="evenodd" clip-rule="evenodd" d="M416.3 272.7l-25.2-65h50.4l-25.2 65z" fill="#B8E986"></path><path fill-rule="evenodd" clip-rule="evenodd" d="M406.1 175.7h20v79h-20v-79z" fill="#B8E986"></path><path d="M326 175.7l.027-49.267c0-1.082.877-1.959 1.959-1.959l37.951-.001c.784-.308.504-.504.392-.7-2.435-4.031-4.03-8.37-4.646-13.072-1.371-10.778 1.68-20.155 9.012-28.19.42-.447.84-.867 1.288-1.287.364-.364.364-.364.028-.7-1.148-1.091-2.183-2.295-3.051-3.639-1.959-3.107-3.05-6.494-3.134-10.189-.028-.924.167-1.036 1.007-.616.896.448 1.819.84 2.799 1.148.112-1.624-.084-2.967-.112-4.34 0-.503-.028-.979 0-1.483 0-.7.252-.867.867-.504.98.56 1.96 1.064 2.995 1.484.616.252.616.252.56-.42-.168-1.763-.196-3.527 0-5.29.168-.672.476-.784.699-.588.168.14.28.336.42.503 2.155 2.688 4.562 5.095 7.445 7.027 2.519 1.68 5.233 2.603 8.256 2.631 2.267.028 4.45-.448 6.549-1.26 1.959-.755 3.918-1.54 5.961-1.987 2.071-.448 4.17-.644 6.241-.14 3.527.868 5.906 3.135 7.389 6.382.56 1.232.867 2.52 1.063 3.863.084.504.084.504.616.476 3.079-.224 6.045.252 8.732 1.848 3.219 1.931 5.01 4.842 5.709 8.453.504 2.66.364 5.291-.056 7.95-.335 2.072-.895 4.115-1.567 6.103-.168.504-.28.476.336.7 3.135 1.064 5.094 3.219 5.653 6.466.784 4.451-2.071 8.398-6.213 9.378-.755.168-1.539.28-2.323.196-.335-.056-.447.112-.531.42a35.374 35.374 0 01-2.379 6.186 33.93 33.93 0 01-8.061 10.385c-.755.532-.811.84-.643 1.26.392 1.092.727 2.211 1.091 3.303 2.267 7.054 4.562 14.081 6.801 21.135.168.504.392.7.896.783 2.211.476 3.61 1.848 4.198 4.031.112.476.196.98.28 1.456.531-.308.755-.616 1.091-.896.952-.783 2.015-.951 3.163-.56 1.175.42 1.875 1.288 2.043 2.52.056.42.168.532.587.588 1.959.308 3.107 2.239 2.463 4.143-.168.475-.112.811.224 1.203.868 1.036 1.372 2.24 1.539 3.583.084.588 0 .588.644.588h11.559c0-1.175-.364-2.099-.56-3.107a11.794 11.794 0 00-3.079.588c-.503.168-.755.056-.839-.224-.084-.252.112-.448.588-.588.811-.252 1.623-.476 2.434-.728.812-.252.672-.056.672-.951.028-.42-.14-.476-.364-.476h-4.03c-.727-.028-.839-.168-.839-.392.531-.42.671-.392.839-.392h3.974c.364 0 .504-.112.56-.476.14-.952.168-.952-.784-1.232-.783-.252-1.595-.476-2.378-.7-.616-.251-.7-.419-.644-.615.616-.28.783-.224.979-.168.952.28 1.876.56 2.827.867 1.287-1.987 2.379-3.387 3.862-4.45.28-.196.336-.42.336-.728v-8.65c.056-.392.336-.532.672-.336 2.771 2.575 5.205 4.843 7.612 7.082.644.616.448.616 1.176.084a15.093 15.093 0 0117.492 0c.671.476.475.588 1.203-.084l7.361-6.774c.224-.196.419-.532.783-.392.392.14.252.532.252.812v12.569c0 .811 0 .811.756.588.672-.196 1.315-.392 1.987-.588.951.392.896.588.644.671l-1.596.504-1.427.42c-.392.644-.392 1.064-.364 1.456 2.015.168 3.247.168 4.478.168.7.084.84.224.812.42-.504.392-.7.392-.868.392h-3.89c-.56 0-.588 0-.588.531 0 .868-.056.672.672.896.756.252 1.539.448 2.323.7.644.28.728.448.644.672-1.652-.084-2.407-.336-3.191-.56-.448 1.148-.448 1.96-.448 2.799 0 .308.084.476.42.448h12.09c.308 0 .616-.028.924.14v.532c-.7.168-.896.168-1.119.168H326z" fill="#151D38"></path><path d="M358.466 170.8v-.056h31.202c.732 0 .732 0 .732-.724v-43.425c-.028-.753-.45-1.199-1.21-1.283-.253-.027-.506 0-.731 0h-60.296c-1.041.028-1.463.474-1.463 1.478v43.341c0 .641 0 .641.675.641h.479c10.185.028 20.398.028 30.612.028z" fill="#CCD6DA"></path><path d="M378.658 124.467h10.174c1.059 0 1.867.618 2.062 1.573.056.253.056.477.056.73v11.597c0 .646.056.618.557.674 4.098.505 8.139.281 12.125-.758 9.087-2.387 15.972-7.722 20.682-15.866 1.338-2.302 2.341-4.773 3.066-7.357.14-.505.14-.505-.334-.645l-.753-.253c-.474-.197-.613-.365-.53-.646.084-.309.335-.337.837-.168a7.473 7.473 0 004.069.365c4.125-.815 6.773-5.027 5.686-9.098-1.115-4.156-5.407-6.515-9.421-5.167-.195.056-.362.168-.557.196-.195.028-.335-.084-.418-.252-.084-.197-.028-.365.111-.478a.865.865 0 01.362-.168c.307-.112.586-.197.892-.281.056-.028.14-.056.168-.112.055-.14-.084-.113-.168-.14-.111-.057-.25-.085-.39-.141-2.09-.73-4.097-1.657-5.937-2.892-3.345-2.19-5.937-5.055-7.609-8.733a21.726 21.726 0 01-1.617-5.476c-.083-.562-.111-.562-.585-.309a4.188 4.188 0 00-.474.281 49.758 49.758 0 01-7.693 3.707c-5.77 2.162-11.679 3.032-17.783 1.937-4.237-.758-8.195-2.274-11.651-4.942-.446-.337-.446-.337-.808.028-3.122 3.005-5.603 6.459-7.387 10.39-2.759 6.15-3.595 12.552-2.564 19.207.697 4.521 2.313 8.704 4.711 12.58.278.477.585.673 1.17.673 3.289-.084 6.606-.056 9.951-.056z" fill="#FAE0D6"></path><path d="M391.132 155.408v15.201c0 .337.084.478.448.478.756-.028 1.512 0 2.295 0 2.828 0 5.655-.028 8.454-.028.588 0 .644.084.644.676v2.758c0 .451-.056.507.448.507h10.805c.364 0 .448-.141.476-.45.112-1.014.42-1.999.952-2.872.196-.309.224-.591.084-.957-.588-1.745-1.148-3.519-1.708-5.264-1.371-4.279-2.771-8.557-4.143-12.836a2.784 2.784 0 01-.14-.451c-.056-.253.056-.45.308-.506.224-.057.392.056.476.253l.084.253 2.939 9.121c.924 2.871 1.848 5.743 2.8 8.586.168.478.168.506.532.169a7.266 7.266 0 013.555-1.943c.42-.112.448-.112.336-.535-.224-.929-.476-1.886-.672-2.815-.644-2.815 1.063-5.714 3.835-6.446.168-.056.364-.056.532-.112.196-.029.28-.141.196-.338a1.015 1.015 0 00-.112-.31c-2.184-6.812-4.395-13.653-6.579-20.465-.392-1.267-.812-2.533-1.231-3.8-.084-.282-.224-.394-.448-.141a.988.988 0 01-.28.197c-1.848 1.38-3.835 2.59-5.935 3.547-4.087 1.886-8.398 2.956-12.904 3.125-1.904.084-3.807.056-5.683-.225-.308-.057-.42.056-.392.337v.535c.028 4.926.028 9.853.028 14.751z" fill="#FFF3A2"></path><path d="M480.44 174.943h12.26c.586 0 .586 0 .586-.594v-20.715c0-.113.056-.254-.056-.311-.167-.085-.223.085-.335.17-1.508 1.415-3.016 2.802-4.552 4.216-.921.849-1.843 1.727-2.765 2.576-.391.368-.446.339-.865.056-.14-.085-.252-.198-.363-.283-2.206-1.669-4.664-2.66-7.401-2.858-3.658-.283-6.981.736-9.913 3-.643.509-.643.509-1.229-.029a.387.387 0 00-.112-.084c-2.206-2.095-4.44-4.189-6.674-6.283-.168-.17-.335-.481-.559-.396-.167.085-.083.396-.083.623v7.329c0 .34-.028.623-.391.849-4.022 2.745-4.971 8.093-2.625 12.225.223.396.474.566.949.566 2.96-.028 5.948 0 8.908-.028.196 0 .475.085.559-.085.084-.17-.195-.311-.335-.453-1.452-1.585-1.899-3.424-1.285-5.462.615-2.037 2.039-3.254 4.05-3.735.418-.113.837-.17 1.256-.113.224.028.363.17.363.424 0 .198-.111.34-.335.368-.251.028-.475.057-.726.085-1.927.255-3.574 1.726-3.965 3.622a4.692 4.692 0 002.094 4.981c.419.255.866.396 1.396.396 4.133-.085 8.155-.057 12.148-.057z" fill="#C27659"></path><path d="M358.517 171.529c-5.71.025-11.42.025-17.13.025h-14.29c-.281 0-.422.1-.393.35v1.497c0 .899 0 .899 1.012.899 8.017 0 16.062 0 24.079-.025 12.517 0 25.006-.025 37.524-.025h.534c.394-.025.535-.15.535-.499.028-.649 0-1.273 0-1.922 0-.275-.141-.349-.422-.324h-.479c-2.981 0-5.935.024-8.916.024h-22.054zm69.656 3.443h12.291c.249.028.36-.057.332-.342a6.6 6.6 0 00-1.274-3.243c-.11-.171-.221-.142-.276.057-.028.085-.056.17-.111.256-.914 1.963-3.184 2.503-4.844 1.138-.305-.256-.499-.313-.859-.142-1.024.426-1.993.284-2.906-.342-.969-.683-1.412-1.65-1.329-2.873.028-.427 0-.455-.36-.342-.858.228-1.661.143-2.436-.313-.194-.113-.36-.113-.581-.113-1.274 0-2.575-.029-3.848 0-2.934.056-5.453 2.133-6.201 5.064a5.613 5.613 0 00-.166.938c-.028.2.056.285.249.285h.526c3.959-.028 7.89-.028 11.793-.028z" fill="#CCD6DA"></path><path d="M423.305 167.501h1.531c.203 0 .318-.054.232-.271-.578-1.488-.665-3.085-1.012-4.628-.087-.351.058-.568.318-.622.26-.054.433.108.52.46.087.352.145.731.202 1.083.174.92.318 1.84.521 2.733.289 1.218 1.473 1.922 2.774 1.705 1.271-.243 2.08-1.326 1.878-2.544-.173-1.055-.347-2.084-.607-3.112-.549-2.301-3.005-3.762-5.461-3.329-2.341.406-4.046 2.706-3.641 4.953.202 1.082.549 2.138.809 3.22.057.244.202.352.491.352h1.445zm6.995 2.352c.057.787.315 1.404.944 1.854 1.316.955 3.089.477 3.661-1.039.543-1.489 1.058-3.006 1.573-4.522.057-.169.086-.338.115-.534.085-1.096-.573-2.079-1.659-2.416-1.059-.309-2.231.141-2.746 1.124-.343.674-.63 1.404-.744 2.163a4.486 4.486 0 01-.543 1.572 4.447 4.447 0 00-.601 1.798z" fill="#FAE0D6"></path><path d="M396.586 174.3v-.025h5.231c.284-.025.483-.126.483-.404v-2.119c0-.176-.114-.252-.313-.252h-6.936c-1.165 0-2.331.025-3.468.025-.341 0-.483.101-.483.404.028.63 0 1.261 0 1.866 0 .48 0 .505.569.505h4.917z" fill="#CCD6DA"></path><path d="M439.4 168.978c0-1.253-.806-2.151-2.029-2.342-.538-.082-.597-.055-.776.408-.329.872-.627 1.744-.955 2.588-.299.763-.448 1.607-1.045 2.261-.209.218-.03.354.119.49 1.254.953 3.164.545 3.821-.871.298-.654.537-1.335.775-2.016.09-.218.09-.436.09-.518z" fill="#FAE0D6"></path><path d="M366.588 148.543c-.222 3.405-2.33 5.944-5.437 6.67-3.994.949-7.933-1.814-8.488-5.916-.472-3.461 1.747-6.977 5.353-7.814.777-.168.833-.14.944.642.471 2.651 2.246 4.604 4.826 5.19.61.14 1.221.168 1.859.112.832-.084.915 0 .943.837.027.14 0 .279 0 .279z" fill="#151D38"></path><path d="M359.723 154.7c.424-.029.99-.086 1.556-.23 2.518-.688 4.498-3.097 4.611-5.678.029-.573.029-.573-.509-.573-3.367.057-6.309-2.237-7.073-5.563-.169-.746-.254-.574-.707-.43-2.914.975-4.725 4.014-4.215 7.14.48 3.04 3.168 5.362 6.337 5.334z" fill="#fff"></path><path d="M390.27 98.955h9.22c1.413 0 2.825.057 4.237.085.665.029.831.256.526.823-2.077 3.942-5.123 6.693-9.47 7.629-4.375.936-8.224-.283-11.519-3.375-1.301-1.219-2.298-2.694-3.101-4.31-.083-.171-.166-.313-.222-.483-.111-.34 0-.51.36-.596.139-.028.277-.028.388-.028l8.168.085c.471 0 .914.057 1.385.057.028.056.028.085.028.113z" fill="#151D38"></path><path d="M392.551 99.508h-2.502c-1.04 0-2.052 0-3.092-.054-1.771-.054-3.542-.054-5.313-.054-.393 0-.422.027-.225.351a12.73 12.73 0 002.699 3.377c3.092 2.702 6.69 3.809 10.794 3.026 3.767-.73 6.522-2.837 8.546-5.916.365-.568.365-.595-.337-.595-3.514-.054-7.056-.108-10.57-.135z" fill="#fff"></path><path d="M365.9 103.25c0-2.288 1.716-4.522 4.577-4.55 2.507-.027 4.523 2.044 4.523 4.55a4.523 4.523 0 01-4.55 4.55c-2.507-.027-4.55-2.043-4.55-4.55zm53.893.714c.11 2.186-1.775 4.509-4.533 4.536-2.512 0-4.533-2.022-4.56-4.536 0-2.568 1.993-4.563 4.56-4.563 2.704-.055 4.67 2.268 4.533 4.563z" fill="#E5384A"></path><path d="M376.735 93.1c1.382 0 2.494 1.082 2.464 2.465 0 1.353-1.082 2.435-2.404 2.435-1.383 0-2.495-1.082-2.495-2.465 0-1.323 1.082-2.405 2.435-2.435zm31.53.7c1.383 0 2.435 1.083 2.435 2.495-.03 1.352-1.112 2.434-2.465 2.404-1.322 0-2.434-1.112-2.434-2.434a2.401 2.401 0 012.464-2.464zm25.535 12.642c-.028 2.847-2.946 4.853-5.724 3.931-.084-.027-.168-.054-.252-.108-.281-.109-.393-.298-.281-.569.084-.245.337-.272.561-.217.14.027.309.108.449.135 1.936.515 3.956-.678 4.349-2.549.393-1.925-.954-3.741-2.946-4.012-.168-.028-.365-.055-.533-.082-.197-.027-.309-.19-.309-.379 0-.244.14-.353.365-.38.14-.027.309 0 .477 0 2.216.244 3.872 2.061 3.844 4.23zM392.498 92.88c0 .198-.156.312-.338.397-.546.313-1.118.626-1.664.91-.234.113-.286.227-.052.397.468.341.91.71 1.378 1.052.13.085.234.17.338.284.13.142.13.34.026.511-.104.17-.26.2-.442.142a.532.532 0 01-.26-.17c-.702-.54-1.43-1.08-2.132-1.648-.494-.398-.468-.682.078-.995.78-.454 1.586-.88 2.392-1.307.39-.142.702 0 .676.426zM370.8 94.447c.08-2.029 1.407-3.71 3.292-4.086.213-.058.425-.087.638-.03.159.03.265.174.265.348.027.203-.053.377-.239.435a3.818 3.818 0 01-.558.116c-1.433.319-2.389 1.478-2.548 3.043-.027.174-.027.319-.027.492-.026.261-.133.435-.398.435-.266 0-.372-.203-.398-.464-.027-.087-.027-.174-.027-.29zm42.7-.015c0 .114 0 .313-.027.483-.055.2-.192.285-.384.285s-.329-.114-.356-.313c-.027-.142 0-.284-.027-.398-.082-1.679-1.151-2.96-2.739-3.272-.082-.028-.165-.028-.247-.057-.274-.057-.465-.2-.411-.512.055-.313.302-.37.548-.341a4.096 4.096 0 012.41 1.138c.767.825 1.178 1.792 1.233 2.987zm62.062 78.462c-1.05-.03-1.76-.331-2.299-1.053-.227-.27-.313-.27-.54 0-.993 1.173-2.441 1.383-3.605.572-.397-.271-.71-.662-.937-1.113-.113-.24-.142-.541.142-.692.284-.15.454 0 .596.271.085.181.199.361.341.541.937 1.053 2.583.722 3.094-.601.114-.301.142-.481-.227-.571-.511-.151-.823-.572-1.164-.963a1.035 1.035 0 01-.255-.571c-.085-.421.057-.691.482-.691a69.921 69.921 0 013.606 0c.397 0 .539.27.426.691-.171.692-.682 1.053-1.193 1.413-.17.121-.454.091-.511.301-.057.271.114.541.284.782.767 1.112 2.3 1.112 3.094 0 .086-.12.171-.301.256-.421.142-.211.341-.241.539-.15.199.12.256.33.171.541a2.85 2.85 0 01-.767 1.082c-.511.421-1.079.662-1.533.632zm9.338-7.693c1.2 0 2.1.929 2.1 2.099 0 1.2-.96 2.129-2.16 2.099-1.169-.03-2.069-.959-2.039-2.159-.03-1.17.9-2.069 2.099-2.039zm-24.515 4.199c-1.162 0-2.085-.894-2.085-2.085 0-1.192.864-2.085 2.055-2.115 1.222 0 2.145.894 2.145 2.085-.03 1.192-.923 2.115-2.115 2.115z" fill="#151D38"></path><path d="M436.138 186.518h-2.153V196.7h2.153v-10.182zm3.849 5.767c.005-.984.591-1.561 1.447-1.561.85 0 1.362.557 1.357 1.492v4.484h2.118v-4.862c0-1.78-1.044-2.874-2.635-2.874-1.134 0-1.954.557-2.297 1.447h-.09v-1.347h-2.018v7.636h2.118v-4.415zm10.041 4.564c2.034 0 3.311-1.193 3.411-2.948h-1.999c-.124.815-.661 1.273-1.387 1.273-.989 0-1.631-.831-1.631-2.292 0-1.442.647-2.267 1.631-2.267.776 0 1.273.512 1.387 1.272h1.999c-.09-1.764-1.427-2.923-3.421-2.923-2.316 0-3.748 1.606-3.748 3.948 0 2.321 1.407 3.937 3.758 3.937zm8.217 0c2.317 0 3.759-1.586 3.759-3.937 0-2.367-1.442-3.948-3.759-3.948s-3.758 1.581-3.758 3.948c0 2.351 1.441 3.937 3.758 3.937zm.01-1.641c-1.069 0-1.616-.979-1.616-2.311 0-1.333.547-2.317 1.616-2.317 1.049 0 1.596.984 1.596 2.317 0 1.332-.547 2.311-1.596 2.311zm5.126 1.492h2.118v-4.584c0-.845.537-1.407 1.242-1.407.697 0 1.164.477 1.164 1.228v4.763h2.053v-4.663c0-.791.453-1.328 1.223-1.328.676 0 1.183.423 1.183 1.273v4.718h2.113v-5.136c0-1.655-.984-2.6-2.406-2.6-1.119 0-1.989.572-2.302 1.447h-.079c-.244-.885-1.025-1.447-2.074-1.447-1.029 0-1.809.547-2.127 1.447h-.09v-1.347h-2.018v7.636zm12.769 0h2.118v-7.636h-2.118v7.636zm1.064-8.621c.632 0 1.149-.482 1.149-1.074 0-.586-.517-1.069-1.149-1.069-.626 0-1.143.483-1.143 1.069 0 .592.517 1.074 1.143 1.074zm4.869 4.206c.005-.984.591-1.561 1.446-1.561.85 0 1.363.557 1.358 1.492v4.484h2.117v-4.862c0-1.78-1.044-2.874-2.634-2.874-1.134 0-1.954.557-2.297 1.447h-.09v-1.347h-2.018v7.636h2.118v-4.415zm10.031 7.438c2.183 0 3.734-.995 3.734-2.948v-7.711h-2.103v1.282h-.08c-.283-.621-.905-1.382-2.182-1.382-1.676 0-3.093 1.303-3.093 3.903 0 2.54 1.377 3.724 3.098 3.724 1.218 0 1.899-.612 2.177-1.243h.09v1.397c0 1.049-.672 1.456-1.591 1.456-.935 0-1.407-.407-1.581-.87l-1.959.264c.253 1.203 1.432 2.128 3.49 2.128zm.045-4.723c-1.039 0-1.606-.826-1.606-2.143 0-1.298.557-2.207 1.606-2.207 1.029 0 1.606.87 1.606 2.207 0 1.347-.587 2.143-1.606 2.143zm-54.152 11.064h-1.437v-1.83h-2.118v1.83h-1.044v1.59h1.044v3.978c-.01 1.496 1.009 2.237 2.546 2.172.547-.02.934-.129 1.148-.199l-.333-1.576c-.104.02-.328.07-.527.07-.423 0-.716-.159-.716-.746v-3.699h1.437v-1.59zm1.38 7.636h2.117v-4.32c0-.94.687-1.586 1.621-1.586.294 0 .696.049.895.114v-1.879a3.159 3.159 0 00-.666-.075c-.855 0-1.556.497-1.835 1.442h-.079v-1.332h-2.053v7.636zm7.687.144c1.128 0 1.859-.492 2.232-1.203h.06v1.059h2.008v-5.151c0-1.819-1.541-2.585-3.241-2.585-1.83 0-3.033.875-3.326 2.267l1.959.159c.144-.507.596-.88 1.357-.88.721 0 1.133.363 1.133.99v.029c0 .493-.522.557-1.849.687-1.511.139-2.869.646-2.869 2.351 0 1.512 1.079 2.277 2.536 2.277zm.606-1.462c-.651 0-1.118-.303-1.118-.884 0-.597.492-.89 1.238-.995.462-.064 1.218-.174 1.471-.343v.811c0 .8-.661 1.411-1.591 1.411zm9.444-6.318h-1.516v-.512c0-.518.208-.821.83-.821.253 0 .512.055.681.11l.373-1.591a5.561 5.561 0 00-1.497-.209c-1.436 0-2.505.81-2.505 2.471v.552h-1.079v1.59h1.079v6.046h2.118v-6.046h1.516v-1.59zm5.4 0h-1.516v-.512c0-.518.209-.821.83-.821.254 0 .512.055.681.11l.373-1.591a5.552 5.552 0 00-1.496-.209c-1.437 0-2.506.81-2.506 2.471v.552h-1.079v1.59h1.079v6.046h2.118v-6.046h1.516v-1.59zm1.294 7.636h2.118v-7.636h-2.118v7.636zm1.064-8.621c.632 0 1.149-.482 1.149-1.074 0-.586-.517-1.069-1.149-1.069-.626 0-1.143.483-1.143 1.069 0 .592.517 1.074 1.143 1.074zm6.201 8.77c2.033 0 3.311-1.193 3.41-2.948h-1.998c-.124.815-.661 1.273-1.387 1.273-.99 0-1.631-.831-1.631-2.292 0-1.442.646-2.267 1.631-2.267.775 0 1.273.512 1.387 1.272h1.998c-.089-1.764-1.426-2.923-3.42-2.923-2.317 0-3.749 1.606-3.749 3.948 0 2.321 1.407 3.937 3.759 3.937z" fill="#7DA159"></path></g><path d="M617.89 253.127h4.236v-8.173h.129c.587 1.273 1.87 2.695 4.336 2.695 3.48 0 6.194-2.755 6.194-7.865 0-5.25-2.834-7.856-6.184-7.856-2.556 0-3.779 1.522-4.346 2.765h-.189v-2.566h-4.176v21zm4.147-13.363c0-2.725 1.153-4.465 3.211-4.465 2.098 0 3.212 1.82 3.212 4.465 0 2.664-1.134 4.514-3.212 4.514-2.038 0-3.211-1.79-3.211-4.514zm20.473 7.934c4.633 0 7.517-3.172 7.517-7.875 0-4.733-2.884-7.895-7.517-7.895-4.634 0-7.517 3.162-7.517 7.895 0 4.703 2.883 7.875 7.517 7.875zm.02-3.281c-2.138 0-3.232-1.959-3.232-4.624 0-2.664 1.094-4.633 3.232-4.633 2.098 0 3.191 1.969 3.191 4.633 0 2.665-1.093 4.624-3.191 4.624zm10.251 2.983h4.236v-8.641c0-1.879 1.372-3.171 3.241-3.171.587 0 1.392.099 1.79.228v-3.758a6.325 6.325 0 00-1.332-.149c-1.711 0-3.113.994-3.669 2.883h-.159v-2.665h-4.107V247.4zm20.346-15.273h-2.873v-3.659h-4.236v3.659h-2.088v3.182h2.088v7.955c-.02 2.993 2.018 4.474 5.091 4.345a8.263 8.263 0 002.297-.398l-.667-3.152c-.208.04-.656.139-1.054.139-.845 0-1.431-.318-1.431-1.491v-7.398h2.873v-3.182zm5.235 4.843c1.273 0 2.377-1.064 2.387-2.387-.01-1.302-1.114-2.366-2.387-2.366-1.312 0-2.396 1.064-2.386 2.366-.01 1.323 1.074 2.387 2.386 2.387zm0 10.689c1.273 0 2.377-1.064 2.387-2.387-.01-1.302-1.114-2.366-2.387-2.366-1.312 0-2.396 1.064-2.386 2.366-.01 1.323 1.074 2.387 2.386 2.387zm19.902.019c4.593 0 7.894-2.456 7.904-5.757-.01-2.545-1.968-4.623-4.414-5.031v-.139c2.127-.438 3.649-2.277 3.659-4.514-.01-3.152-3.033-5.479-7.149-5.479-4.127 0-7.15 2.327-7.14 5.479-.01 2.227 1.492 4.076 3.659 4.514v.139c-2.485.408-4.424 2.486-4.414 5.031-.01 3.301 3.301 5.757 7.895 5.757zm0-3.161c-2.049 0-3.421-1.214-3.421-2.934 0-1.76 1.442-3.032 3.421-3.032 1.968 0 3.42 1.272 3.42 3.032 0 1.73-1.382 2.934-3.42 2.934zm0-9.099c-1.721 0-2.944-1.123-2.944-2.734 0-1.591 1.204-2.685 2.944-2.685 1.73 0 2.943 1.104 2.943 2.685 0 1.611-1.233 2.734-2.943 2.734zm18.899 12.429c5.121 0 8.213-3.897 8.223-10.609.01-6.662-3.122-10.48-8.223-10.48-5.111 0-8.213 3.808-8.223 10.48-.02 6.692 3.092 10.6 8.223 10.609zm0-3.569c-2.337 0-3.848-2.347-3.838-7.04.01-4.623 1.511-6.95 3.838-6.95 2.317 0 3.828 2.327 3.828 6.95.01 4.693-1.501 7.04-3.828 7.04z" fill="#D1D1D6"></path></svg>